<svg class="io-svg" viewBox="0 0 1180 620" role="img" aria-labelledby="io-title io-desc" xmlns="http://www.w3.org/2000/svg">
  <title id="io-title">표 입출력 흐름</title>
  <desc id="io-desc">원천 시트가 일별 MLL 집계표로 이어지고, 일별 행은 주간 행과 월별 요약으로 집계됩니다. 월별 요약은 결제액과 순매출 목표지표 카드로 이어집니다. Supermetrics 설정은 원천 시트의 갱신 근거를 제공합니다.</desc>
  <defs>
    <marker id="arrow" markerWidth="10" markerHeight="10" refX="9" refY="3" orient="auto" markerUnits="strokeWidth">
      <path d="M0,0 L0,6 L9,3 z" fill="#41627f" />
    </marker>
    <marker id="arrow-dashed" markerWidth="10" markerHeight="10" refX="9" refY="3" orient="auto" markerUnits="strokeWidth">
      <path d="M0,0 L0,6 L9,3 z" fill="#8a6f24" />
    </marker>
    <filter id="shadow" x="-20%" y="-20%" width="140%" height="140%">
      <feDropShadow dx="0" dy="2" stdDeviation="3" flood-color="#0f2437" flood-opacity="0.16" />
    </filter>
  </defs>
  <rect width="1180" height="620" rx="18" fill="#f6f9fc" />
  <text x="36" y="42" font-size="22" font-weight="700" fill="#17324d">표 입출력 흐름</text>
  <text x="36" y="68" font-size="13" fill="#5c6f82">원천 근거 -> 일별 가공표 -> 주간/월별 집계 -> 목표지표 카드</text>

  <g class="lane">
    <text x="48" y="116" font-size="13" font-weight="700" fill="#41627f">원천 근거</text>
    <rect x="36" y="128" width="260" height="342" rx="12" fill="#e9f2fb" stroke="#bed0e0" />
  </g>
  <g class="lane">
    <text x="386" y="116" font-size="13" font-weight="700" fill="#41627f">가공 결과</text>
    <rect x="360" y="128" width="260" height="342" rx="12" fill="#eef8f2" stroke="#bdd7c5" />
  </g>
  <g class="lane">
    <text x="694" y="116" font-size="13" font-weight="700" fill="#41627f">집계</text>
    <rect x="680" y="128" width="190" height="342" rx="12" fill="#fff6e6" stroke="#dfc991" />
  </g>
  <g class="lane">
    <text x="952" y="116" font-size="13" font-weight="700" fill="#41627f">최종 표시</text>
    <rect x="930" y="128" width="214" height="342" rx="12" fill="#f4effb" stroke="#cfbfdf" />
  </g>

  <g filter="url(#shadow)">
    <rect x="66" y="152" width="200" height="48" rx="8" fill="#ffffff" stroke="#9cb8d1" />
    <text x="82" y="173" font-size="13" font-weight="700" fill="#17324d">광고비 원천</text>
    <text x="82" y="190" font-size="11" fill="#5c6f82">[DB]RAW_광고비</text>

    <rect x="66" y="210" width="200" height="48" rx="8" fill="#ffffff" stroke="#9cb8d1" />
    <text x="82" y="231" font-size="13" font-weight="700" fill="#17324d">결제수 원천</text>
    <text x="82" y="248" font-size="11" fill="#5c6f82">[DB]RAW_결제수</text>

    <rect x="66" y="268" width="200" height="48" rx="8" fill="#ffffff" stroke="#9cb8d1" />
    <text x="82" y="289" font-size="13" font-weight="700" fill="#17324d">결제액 원천</text>
    <text x="82" y="306" font-size="11" fill="#5c6f82">[DB]RAW_결제액</text>

    <rect x="66" y="326" width="200" height="48" rx="8" fill="#ffffff" stroke="#9cb8d1" />
    <text x="82" y="347" font-size="13" font-weight="700" fill="#17324d">순구매수 원천</text>
    <text x="82" y="364" font-size="11" fill="#5c6f82">[DB]RAW_순구매수</text>

    <rect x="66" y="384" width="200" height="48" rx="8" fill="#ffffff" stroke="#9cb8d1" />
    <text x="82" y="405" font-size="13" font-weight="700" fill="#17324d">순매출 원천</text>
    <text x="82" y="422" font-size="11" fill="#5c6f82">[DB]RAW_순매출</text>
  </g>

  <g filter="url(#shadow)">
    <rect x="390" y="238" width="200" height="126" rx="10" fill="#ffffff" stroke="#9bc5a7" />
    <text x="410" y="264" font-size="15" font-weight="700" fill="#17324d">일별 MLL 성과 집계</text>
    <text x="410" y="286" font-size="12" fill="#5c6f82">'MLL_Overview'!A32:AT867</text>
    <text x="410" y="312" font-size="12" fill="#2f6d43">조건 합산 수식</text>
    <text x="410" y="332" font-size="12" fill="#5c6f82">날짜 + 신규/롱테일 조건</text>
  </g>

  <g filter="url(#shadow)">
    <rect x="704" y="184" width="142" height="82" rx="10" fill="#ffffff" stroke="#d1b66d" />
    <text x="722" y="211" font-size="14" font-weight="700" fill="#17324d">월별 요약</text>
    <text x="722" y="232" font-size="11" fill="#5c6f82">A7:AT31</text>
    <text x="722" y="249" font-size="11" fill="#8a6f24">월별 집계 수식</text>

    <rect x="704" y="334" width="142" height="82" rx="10" fill="#ffffff" stroke="#d1b66d" />
    <text x="722" y="361" font-size="14" font-weight="700" fill="#17324d">주간 집계 행</text>
    <text x="722" y="382" font-size="11" fill="#5c6f82">A39:AT871</text>
    <text x="722" y="399" font-size="11" fill="#8a6f24">7일 합산</text>
  </g>

  <g filter="url(#shadow)">
    <rect x="958" y="182" width="154" height="88" rx="10" fill="#ffffff" stroke="#b9a5d0" />
    <text x="976" y="209" font-size="14" font-weight="700" fill="#17324d">결제액 목표지표</text>
    <text x="976" y="230" font-size="11" fill="#5c6f82">K1:U5</text>
    <text x="976" y="247" font-size="11" fill="#6a4d8f">6월/목표지표/달성률</text>

    <rect x="958" y="318" width="154" height="88" rx="10" fill="#ffffff" stroke="#b9a5d0" />
    <text x="976" y="345" font-size="14" font-weight="700" fill="#17324d">순매출 목표지표</text>
    <text x="976" y="366" font-size="11" fill="#5c6f82">AE1:AO5</text>
    <text x="976" y="383" font-size="11" fill="#6a4d8f">6월/목표지표/달성률</text>
  </g>

  <g filter="url(#shadow)">
    <rect x="390" y="500" width="200" height="58" rx="10" fill="#fffdf4" stroke="#d5bd67" />
    <text x="410" y="523" font-size="13" font-weight="700" fill="#17324d">SupermetricsQueries</text>
    <text x="410" y="542" font-size="11" fill="#8a6f24">원천 갱신 근거</text>
  </g>

  <g fill="none" stroke="#41627f" stroke-width="2.4" marker-end="url(#arrow)">
    <path d="M266 176 C316 176 330 254 390 272" />
    <path d="M266 234 C320 234 332 278 390 292" />
    <path d="M266 292 C320 292 332 304 390 308" />
    <path d="M266 350 C320 350 332 326 390 322" />
    <path d="M266 408 C320 408 334 348 390 338" />
    <path d="M590 280 C642 250 656 224 704 224" />
    <path d="M590 326 C642 352 656 376 704 376" />
    <path d="M846 224 C894 224 914 224 958 224" />
    <path d="M846 240 C906 274 920 342 958 362" />
  </g>
  <g fill="none" stroke="#8a6f24" stroke-width="2" stroke-dasharray="7 5" marker-end="url(#arrow-dashed)">
    <path d="M390 528 C302 516 290 178 266 176" />
    <path d="M490 500 C490 452 490 408 490 364" />
  </g>

  <g>
    <rect x="54" y="520" width="20" height="10" fill="#ffffff" stroke="#9cb8d1" />
    <text x="82" y="530" font-size="11" fill="#5c6f82">실선: 수식으로 계산된 값 흐름</text>
    <line x1="54" y1="550" x2="74" y2="550" stroke="#8a6f24" stroke-width="2" stroke-dasharray="5 4" />
    <text x="82" y="554" font-size="11" fill="#5c6f82">점선: 갱신/자동화 근거</text>
  </g>
</svg>